# MagicaVoxel @ Ephtracy

# group
o 

# material
mtllib Recycle bin.mtl
usemtl palette

# normals
vn -1 0 0
vn 1 0 0
vn 0 0 1
vn 0 0 -1
vn 0 -1 0
vn 0 1 0

# texcoords
vt 0.822266 0.5
vt 0.857422 0.5
vt 0.880859 0.5
vt 0.986328 0.5

# verts
v -1.4 0 0.7
v -1.4 0 -0.5
v -1.4 0.1 0.7
v -1.4 0.1 -0.5
v -1.4 0.2 0.7
v -1.4 0.2 -0.5
v -1.4 0.3 0.7
v -1.4 0.3 -0.5
v -1.4 0.4 0.7
v -1.4 0.4 -0.5
v -1.4 0.8 0.7
v -1.4 0.8 -0.5
v -1.4 1 0.7
v -1.4 1 -0.5
v -1.4 1.7 0.4
v -1.4 1.7 -0.2
v -1.4 2.1 0.4
v -1.4 2.1 -0.2
v -1.4 2.3 0.7
v -1.4 2.3 -0.5
v -1.4 2.4 0.7
v -1.4 2.4 -0.5
v -1.4 2.5 0.7
v -1.4 2.5 -0.5
v -1.3 2.3 0.6
v -1.3 2.3 -0.4
v -1.3 2.4 0.6
v -1.3 2.4 -0.4
v 0.8 2.4 0.4
v 0.8 2.4 -0.2
v 0.8 2.5 0.4
v 0.8 2.5 -0.2
v 1 1.7 0.7
v 1 1.7 0.6
v 1 1.7 -0.4
v 1 1.7 -0.5
v 1 2.1 0.7
v 1 2.1 0.6
v 1 2.1 -0.4
v 1 2.1 -0.5
v 1.1 0.2 0.5
v 1.1 0.2 -0.3
v 1.1 1.7 0.5
v 1.1 1.7 -0.3
v 1.1 2.2 0.5
v 1.1 2.2 -0.3
v 1.1 2.4 0.5
v 1.1 2.4 -0.3
v 1.2 1.7 0.6
v 1.2 1.7 0.4
v 1.2 1.7 -0.2
v 1.2 1.7 -0.4
v 1.2 2.1 0.4
v 1.2 2.1 -0.2
v 1.2 2.2 0.6
v 1.2 2.2 -0.4
v -1.3 1.7 0.6
v -1.3 1.7 0.4
v -1.3 1.7 -0.2
v -1.3 1.7 -0.4
v -1.3 2.1 0.4
v -1.3 2.1 -0.2
v -1.3 2.2 0.6
v -1.3 2.2 -0.4
v -1.2 0.2 0.5
v -1.2 0.2 -0.3
v -1.2 1.1 0.5
v -1.2 1.1 0.3
v -1.2 1.2 0.5
v -1.2 1.5 0.5
v -1.2 1.6 0.5
v -1.2 1.6 0.3
v -1.2 1.7 0.5
v -1.2 1.7 -0.3
v -1.2 2.2 0.5
v -1.2 2.2 -0.3
v -1.2 2.4 0.5
v -1.2 2.4 -0.3
v -1.1 1.7 0.7
v -1.1 1.7 0.6
v -1.1 1.7 -0.4
v -1.1 1.7 -0.5
v -1.1 2.1 0.7
v -1.1 2.1 0.6
v -1.1 2.1 -0.4
v -1.1 2.1 -0.5
v -0.9 2.4 0.4
v -0.9 2.4 -0.2
v -0.9 2.5 0.4
v -0.9 2.5 -0.2
v 1.2 2.3 0.6
v 1.2 2.3 -0.4
v 1.2 2.4 0.6
v 1.2 2.4 -0.4
v 1.3 0 0.7
v 1.3 0 -0.5
v 1.3 0.1 0.7
v 1.3 0.1 -0.5
v 1.3 0.2 0.7
v 1.3 0.2 -0.5
v 1.3 0.3 0.7
v 1.3 0.3 -0.5
v 1.3 0.4 0.7
v 1.3 0.4 -0.5
v 1.3 0.8 0.7
v 1.3 0.8 -0.5
v 1.3 1 0.7
v 1.3 1 -0.5
v 1.3 1.7 0.4
v 1.3 1.7 -0.2
v 1.3 2.1 0.4
v 1.3 2.1 -0.2
v 1.3 2.3 0.7
v 1.3 2.3 -0.5
v 1.3 2.4 0.7
v 1.3 2.4 -0.5
v 1.3 2.5 0.7
v 1.3 2.5 -0.5
v -1.4 0 0.7
v -1.4 0.1 0.7
v -1.4 0.2 0.7
v -1.4 0.3 0.7
v -1.4 0.4 0.7
v -1.4 0.8 0.7
v -1.4 1 0.7
v -1.4 2.3 0.7
v -1.4 2.4 0.7
v -1.4 2.5 0.7
v -1.2 1.1 0.7
v -1.2 1.6 0.7
v -1.1 1.2 0.7
v -1.1 1.5 0.7
v -1.1 1.7 0.7
v -1.1 2.1 0.7
v -1 1.3 0.7
v -1 1.4 0.7
v -0.9 1.2 0.7
v -0.9 1.3 0.7
v -0.8 1.1 0.7
v -0.8 1.4 0.7
v -0.8 1.5 0.7
v -0.8 1.6 0.7
v -0.7 1.1 0.7
v -0.7 1.6 0.7
v -0.6 1.2 0.7
v -0.6 1.6 0.7
v -0.4 1.1 0.7
v -0.4 1.2 0.7
v -0.3 1.1 0.7
v -0.3 1.6 0.7
v -0.2 1.1 0.7
v -0.2 1.3 0.7
v -0.2 1.4 0.7
v -0.2 1.5 0.7
v -0.1 1.1 0.7
v -0.1 1.3 0.7
v -0.1 1.4 0.7
v -0.1 1.5 0.7
v 0 1.1 0.7
v 0 1.6 0.7
v 0.1 1.1 0.7
v 0.1 1.2 0.7
v 0.1 1.3 0.7
v 0.1 1.6 0.7
v 0.2 1.4 0.7
v 0.2 1.5 0.7
v 0.4 1.2 0.7
v 0.4 1.3 0.7
v 0.5 1.1 0.7
v 0.5 1.4 0.7
v 0.5 1.5 0.7
v 0.5 1.6 0.7
v 0.6 1.1 0.7
v 0.6 1.2 0.7
v 0.6 1.3 0.7
v 0.6 1.6 0.7
v 0.7 1.4 0.7
v 0.7 1.5 0.7
v 0.9 1.2 0.7
v 0.9 1.3 0.7
v 1 1.1 0.7
v 1 1.4 0.7
v 1 1.5 0.7
v 1 1.6 0.7
v 1 1.7 0.7
v 1 2.1 0.7
v 1.3 0 0.7
v 1.3 0.1 0.7
v 1.3 0.2 0.7
v 1.3 0.3 0.7
v 1.3 0.4 0.7
v 1.3 0.8 0.7
v 1.3 1 0.7
v 1.3 2.3 0.7
v 1.3 2.4 0.7
v 1.3 2.5 0.7
v -1.3 2.3 0.6
v -1.3 2.4 0.6
v 1.2 2.3 0.6
v 1.2 2.4 0.6
v -1.4 1.7 -0.2
v -1.4 2.1 -0.2
v -1.3 1.7 -0.2
v -1.3 2.1 -0.2
v -0.9 2.4 -0.2
v -0.9 2.5 -0.2
v 0.8 2.4 -0.2
v 0.8 2.5 -0.2
v 1.2 1.7 -0.2
v 1.2 2.1 -0.2
v 1.3 1.7 -0.2
v 1.3 2.1 -0.2
v -1.2 0.2 -0.3
v -1.2 1.7 -0.3
v -1.2 2.2 -0.3
v -1.2 2.4 -0.3
v 1.1 0.2 -0.3
v 1.1 1.7 -0.3
v 1.1 2.2 -0.3
v 1.1 2.4 -0.3
v -1.3 1.7 -0.4
v -1.3 2.2 -0.4
v -1.1 1.7 -0.4
v -1.1 2.1 -0.4
v 1 1.7 -0.4
v 1 2.1 -0.4
v 1.2 1.7 -0.4
v 1.2 2.2 -0.4
v -1.3 1.7 0.6
v -1.3 2.2 0.6
v -1.1 1.7 0.6
v -1.1 2.1 0.6
v 1 1.7 0.6
v 1 2.1 0.6
v 1.2 1.7 0.6
v 1.2 2.2 0.6
v -1.2 0.2 0.5
v -1.2 1.1 0.5
v -1.2 1.2 0.5
v -1.2 1.5 0.5
v -1.2 1.6 0.5
v -1.2 1.7 0.5
v -1.2 2.2 0.5
v -1.2 2.4 0.5
v -1.1 1.3 0.5
v -1.1 1.4 0.5
v -1 1.2 0.5
v -1 1.3 0.5
v -0.9 1.1 0.5
v -0.9 1.4 0.5
v -0.9 1.5 0.5
v -0.9 1.6 0.5
v 1.1 0.2 0.5
v 1.1 1.7 0.5
v 1.1 2.2 0.5
v 1.1 2.4 0.5
v -1.4 1.7 0.4
v -1.4 2.1 0.4
v -1.3 1.7 0.4
v -1.3 2.1 0.4
v -0.9 2.4 0.4
v -0.9 2.5 0.4
v 0.8 2.4 0.4
v 0.8 2.5 0.4
v 1.2 1.7 0.4
v 1.2 2.1 0.4
v 1.3 1.7 0.4
v 1.3 2.1 0.4
v -1.3 2.3 -0.4
v -1.3 2.4 -0.4
v 1.2 2.3 -0.4
v 1.2 2.4 -0.4
v -1.4 0 -0.5
v -1.4 0.1 -0.5
v -1.4 0.2 -0.5
v -1.4 0.3 -0.5
v -1.4 0.4 -0.5
v -1.4 0.8 -0.5
v -1.4 1 -0.5
v -1.4 2.3 -0.5
v -1.4 2.4 -0.5
v -1.4 2.5 -0.5
v -1.1 1.1 -0.5
v -1.1 1.4 -0.5
v -1.1 1.5 -0.5
v -1.1 1.6 -0.5
v -1.1 1.7 -0.5
v -1.1 2.1 -0.5
v -1 1.2 -0.5
v -1 1.3 -0.5
v -0.8 1.4 -0.5
v -0.8 1.5 -0.5
v -0.7 1.1 -0.5
v -0.7 1.2 -0.5
v -0.7 1.3 -0.5
v -0.7 1.6 -0.5
v -0.6 1.1 -0.5
v -0.6 1.4 -0.5
v -0.6 1.5 -0.5
v -0.6 1.6 -0.5
v -0.5 1.2 -0.5
v -0.5 1.3 -0.5
v -0.3 1.4 -0.5
v -0.3 1.5 -0.5
v -0.2 1.1 -0.5
v -0.2 1.2 -0.5
v -0.2 1.3 -0.5
v -0.2 1.6 -0.5
v -0.1 1.1 -0.5
v -0.1 1.6 -0.5
v 0 1.1 -0.5
v 0 1.3 -0.5
v 0 1.4 -0.5
v 0 1.5 -0.5
v 0.1 1.1 -0.5
v 0.1 1.3 -0.5
v 0.1 1.4 -0.5
v 0.1 1.5 -0.5
v 0.2 1.1 -0.5
v 0.2 1.6 -0.5
v 0.3 1.1 -0.5
v 0.3 1.2 -0.5
v 0.5 1.2 -0.5
v 0.5 1.6 -0.5
v 0.6 1.1 -0.5
v 0.6 1.6 -0.5
v 0.7 1.1 -0.5
v 0.7 1.4 -0.5
v 0.7 1.5 -0.5
v 0.7 1.6 -0.5
v 0.8 1.2 -0.5
v 0.8 1.3 -0.5
v 0.9 1.3 -0.5
v 0.9 1.4 -0.5
v 1 1.2 -0.5
v 1 1.5 -0.5
v 1 1.7 -0.5
v 1 2.1 -0.5
v 1.1 1.1 -0.5
v 1.1 1.6 -0.5
v 1.3 0 -0.5
v 1.3 0.1 -0.5
v 1.3 0.2 -0.5
v 1.3 0.3 -0.5
v 1.3 0.4 -0.5
v 1.3 0.8 -0.5
v 1.3 1 -0.5
v 1.3 2.3 -0.5
v 1.3 2.4 -0.5
v 1.3 2.5 -0.5
v -1.4 0 0.7
v 1.3 0 0.7
v -1.4 0 -0.5
v 1.3 0 -0.5
v -1.1 2.1 0.7
v 1 2.1 0.7
v -1.1 2.1 0.6
v 1 2.1 0.6
v -1.4 2.1 0.4
v -1.3 2.1 0.4
v 1.2 2.1 0.4
v 1.3 2.1 0.4
v -1.4 2.1 -0.2
v -1.3 2.1 -0.2
v 1.2 2.1 -0.2
v 1.3 2.1 -0.2
v -1.1 2.1 -0.4
v 1 2.1 -0.4
v -1.1 2.1 -0.5
v 1 2.1 -0.5
v -1.3 2.2 0.6
v 1.2 2.2 0.6
v -1.2 2.2 0.5
v 1.1 2.2 0.5
v -1.2 2.2 -0.3
v 1.1 2.2 -0.3
v -1.3 2.2 -0.4
v 1.2 2.2 -0.4
v -1.4 2.4 0.7
v 1.3 2.4 0.7
v -1.3 2.4 0.6
v 1.2 2.4 0.6
v -1.2 2.4 0.5
v 1.1 2.4 0.5
v -0.9 2.4 0.4
v 0.8 2.4 0.4
v -0.9 2.4 -0.2
v 0.8 2.4 -0.2
v -1.2 2.4 -0.3
v 1.1 2.4 -0.3
v -1.3 2.4 -0.4
v 1.2 2.4 -0.4
v -1.4 2.4 -0.5
v 1.3 2.4 -0.5
v -1.2 0.2 0.5
v 1.1 0.2 0.5
v -1.2 0.2 -0.3
v 1.1 0.2 -0.3
v -1.1 1.7 0.7
v 1 1.7 0.7
v -1.3 1.7 0.6
v -1.1 1.7 0.6
v 1 1.7 0.6
v 1.2 1.7 0.6
v -1.2 1.7 0.5
v 1.1 1.7 0.5
v -1.4 1.7 0.4
v -1.3 1.7 0.4
v 1.2 1.7 0.4
v 1.3 1.7 0.4
v -1.4 1.7 -0.2
v -1.3 1.7 -0.2
v 1.2 1.7 -0.2
v 1.3 1.7 -0.2
v -1.2 1.7 -0.3
v 1.1 1.7 -0.3
v -1.3 1.7 -0.4
v -1.1 1.7 -0.4
v 1 1.7 -0.4
v 1.2 1.7 -0.4
v -1.1 1.7 -0.5
v 1 1.7 -0.5
v -1.4 2.3 0.7
v 1.3 2.3 0.7
v -1.3 2.3 0.6
v 1.2 2.3 0.6
v -1.3 2.3 -0.4
v 1.2 2.3 -0.4
v -1.4 2.3 -0.5
v 1.3 2.3 -0.5
v -1.4 2.5 0.7
v 1.3 2.5 0.7
v -0.9 2.5 0.4
v 0.8 2.5 0.4
v -0.9 2.5 -0.2
v 0.8 2.5 -0.2
v -1.4 2.5 -0.5
v 1.3 2.5 -0.5

# faces
f 3/1/1 2/1/1 1/1/1
f 4/1/1 2/1/1 3/1/1
f 5/2/1 4/2/1 3/2/1
f 6/2/1 4/2/1 5/2/1
f 7/1/1 6/1/1 5/1/1
f 8/1/1 6/1/1 7/1/1
f 9/2/1 8/2/1 7/2/1
f 10/2/1 8/2/1 9/2/1
f 11/1/1 10/1/1 9/1/1
f 12/1/1 10/1/1 11/1/1
f 13/2/1 12/2/1 11/2/1
f 14/2/1 12/2/1 13/2/1
f 15/1/1 14/1/1 13/1/1
f 16/1/1 14/1/1 15/1/1
f 17/1/1 15/1/1 13/1/1
f 18/1/1 14/1/1 16/1/1
f 19/1/1 17/1/1 13/1/1
f 19/1/1 18/1/1 17/1/1
f 20/1/1 14/1/1 18/1/1
f 20/1/1 18/1/1 19/1/1
f 23/1/1 22/1/1 21/1/1
f 24/1/1 22/1/1 23/1/1
f 27/2/1 26/2/1 25/2/1
f 28/2/1 26/2/1 27/2/1
f 31/1/1 30/1/1 29/1/1
f 32/1/1 30/1/1 31/1/1
f 37/1/1 34/1/1 33/1/1
f 38/1/1 34/1/1 37/1/1
f 39/1/1 36/1/1 35/1/1
f 40/1/1 36/1/1 39/1/1
f 43/4/1 42/4/1 41/4/1
f 44/4/1 42/4/1 43/4/1
f 47/2/1 46/2/1 45/2/1
f 48/2/1 46/2/1 47/2/1
f 53/1/1 50/1/1 49/1/1
f 54/1/1 52/1/1 51/1/1
f 55/1/1 53/1/1 49/1/1
f 55/1/1 54/1/1 53/1/1
f 56/1/1 52/1/1 54/1/1
f 56/1/1 54/1/1 55/1/1
f 57/1/2 58/1/2 61/1/2
f 59/1/2 60/1/2 62/1/2
f 57/1/2 61/1/2 63/1/2
f 61/1/2 62/1/2 63/1/2
f 62/1/2 60/1/2 64/1/2
f 63/1/2 62/1/2 64/1/2
f 65/4/2 66/4/2 67/4/2
f 67/4/2 66/4/2 68/4/2
f 67/3/2 68/3/2 69/3/2
f 69/3/2 68/3/2 70/3/2
f 70/3/2 68/3/2 71/3/2
f 68/4/2 66/4/2 72/4/2
f 71/3/2 68/3/2 72/3/2
f 71/4/2 72/4/2 73/4/2
f 72/4/2 66/4/2 74/4/2
f 73/4/2 72/4/2 74/4/2
f 75/2/2 76/2/2 77/2/2
f 77/2/2 76/2/2 78/2/2
f 79/1/2 80/1/2 83/1/2
f 83/1/2 80/1/2 84/1/2
f 81/1/2 82/1/2 85/1/2
f 85/1/2 82/1/2 86/1/2
f 87/1/2 88/1/2 89/1/2
f 89/1/2 88/1/2 90/1/2
f 91/2/2 92/2/2 93/2/2
f 93/2/2 92/2/2 94/2/2
f 95/1/2 96/1/2 97/1/2
f 97/1/2 96/1/2 98/1/2
f 97/2/2 98/2/2 99/2/2
f 99/2/2 98/2/2 100/2/2
f 99/1/2 100/1/2 101/1/2
f 101/1/2 100/1/2 102/1/2
f 101/2/2 102/2/2 103/2/2
f 103/2/2 102/2/2 104/2/2
f 103/1/2 104/1/2 105/1/2
f 105/1/2 104/1/2 106/1/2
f 105/2/2 106/2/2 107/2/2
f 107/2/2 106/2/2 108/2/2
f 107/1/2 108/1/2 109/1/2
f 109/1/2 108/1/2 110/1/2
f 107/1/2 109/1/2 111/1/2
f 110/1/2 108/1/2 112/1/2
f 107/1/2 111/1/2 113/1/2
f 111/1/2 112/1/2 113/1/2
f 112/1/2 108/1/2 114/1/2
f 113/1/2 112/1/2 114/1/2
f 115/1/2 116/1/2 117/1/2
f 117/1/2 116/1/2 118/1/2
f 129/1/3 126/1/3 125/1/3
f 130/1/3 126/1/3 129/1/3
f 131/4/3 130/4/3 129/4/3
f 132/4/3 130/4/3 131/4/3
f 133/1/3 126/1/3 130/1/3
f 134/1/3 126/1/3 133/1/3
f 135/1/3 132/1/3 131/1/3
f 136/1/3 132/1/3 135/1/3
f 137/4/3 131/4/3 129/4/3
f 137/1/3 135/1/3 131/1/3
f 138/4/3 136/4/3 135/4/3
f 138/1/3 135/1/3 137/1/3
f 139/1/3 129/1/3 125/1/3
f 139/4/3 137/4/3 129/4/3
f 139/4/3 138/4/3 137/4/3
f 140/4/3 136/4/3 138/4/3
f 140/4/3 138/4/3 139/4/3
f 140/1/3 132/1/3 136/1/3
f 141/4/3 130/4/3 132/4/3
f 141/1/3 132/1/3 140/1/3
f 142/1/3 133/1/3 130/1/3
f 142/4/3 130/4/3 141/4/3
f 143/1/3 139/1/3 125/1/3
f 143/1/3 140/1/3 139/1/3
f 143/1/3 142/1/3 141/1/3
f 143/1/3 141/1/3 140/1/3
f 144/1/3 133/1/3 142/1/3
f 144/1/3 142/1/3 143/1/3
f 145/4/3 144/4/3 143/4/3
f 146/1/3 133/1/3 144/1/3
f 146/4/3 144/4/3 145/4/3
f 147/1/3 143/1/3 125/1/3
f 147/4/3 145/4/3 143/4/3
f 148/1/3 146/1/3 145/1/3
f 148/4/3 145/4/3 147/4/3
f 149/1/3 147/1/3 125/1/3
f 149/1/3 148/1/3 147/1/3
f 150/1/3 133/1/3 146/1/3
f 150/1/3 148/1/3 149/1/3
f 150/1/3 146/1/3 148/1/3
f 151/1/3 149/1/3 125/1/3
f 151/4/3 150/4/3 149/4/3
f 152/4/3 150/4/3 151/4/3
f 153/4/3 150/4/3 152/4/3
f 154/4/3 150/4/3 153/4/3
f 155/1/3 151/1/3 125/1/3
f 155/1/3 152/1/3 151/1/3
f 156/4/3 153/4/3 152/4/3
f 156/1/3 152/1/3 155/1/3
f 157/1/3 154/1/3 153/1/3
f 157/4/3 153/4/3 156/4/3
f 158/4/3 150/4/3 154/4/3
f 158/1/3 154/1/3 157/1/3
f 159/4/3 157/4/3 156/4/3
f 159/4/3 156/4/3 155/4/3
f 159/4/3 158/4/3 157/4/3
f 159/1/3 155/1/3 125/1/3
f 160/1/3 133/1/3 150/1/3
f 160/4/3 158/4/3 159/4/3
f 160/4/3 150/4/3 158/4/3
f 161/1/3 159/1/3 125/1/3
f 161/1/3 160/1/3 159/1/3
f 162/1/3 160/1/3 161/1/3
f 163/1/3 160/1/3 162/1/3
f 164/1/3 133/1/3 160/1/3
f 164/1/3 160/1/3 163/1/3
f 165/4/3 164/4/3 163/4/3
f 166/4/3 164/4/3 165/4/3
f 167/1/3 163/1/3 162/1/3
f 167/4/3 162/4/3 161/4/3
f 168/4/3 165/4/3 163/4/3
f 168/1/3 163/1/3 167/1/3
f 169/1/3 161/1/3 125/1/3
f 169/4/3 167/4/3 161/4/3
f 169/4/3 168/4/3 167/4/3
f 170/4/3 165/4/3 168/4/3
f 170/4/3 168/4/3 169/4/3
f 170/1/3 166/1/3 165/1/3
f 171/4/3 164/4/3 166/4/3
f 171/1/3 166/1/3 170/1/3
f 172/1/3 133/1/3 164/1/3
f 172/4/3 164/4/3 171/4/3
f 173/1/3 170/1/3 169/1/3
f 173/1/3 169/1/3 125/1/3
f 173/1/3 172/1/3 171/1/3
f 173/1/3 171/1/3 170/1/3
f 174/1/3 172/1/3 173/1/3
f 175/1/3 172/1/3 174/1/3
f 176/1/3 133/1/3 172/1/3
f 176/1/3 172/1/3 175/1/3
f 177/4/3 176/4/3 175/4/3
f 178/4/3 176/4/3 177/4/3
f 179/1/3 175/1/3 174/1/3
f 179/4/3 174/4/3 173/4/3
f 180/4/3 177/4/3 175/4/3
f 180/1/3 175/1/3 179/1/3
f 181/1/3 173/1/3 125/1/3
f 181/4/3 179/4/3 173/4/3
f 181/4/3 180/4/3 179/4/3
f 182/4/3 177/4/3 180/4/3
f 182/4/3 180/4/3 181/4/3
f 182/1/3 178/1/3 177/1/3
f 183/4/3 176/4/3 178/4/3
f 183/1/3 178/1/3 182/1/3
f 184/1/3 133/1/3 176/1/3
f 184/4/3 176/4/3 183/4/3
f 185/1/3 133/1/3 184/1/3
f 186/1/3 126/1/3 134/1/3
f 187/1/3 120/1/3 119/1/3
f 188/2/3 121/2/3 120/2/3
f 188/1/3 120/1/3 187/1/3
f 189/1/3 122/1/3 121/1/3
f 189/2/3 121/2/3 188/2/3
f 190/2/3 123/2/3 122/2/3
f 190/1/3 122/1/3 189/1/3
f 191/1/3 124/1/3 123/1/3
f 191/2/3 123/2/3 190/2/3
f 192/2/3 125/2/3 124/2/3
f 192/1/3 124/1/3 191/1/3
f 193/1/3 186/1/3 185/1/3
f 193/2/3 125/2/3 192/2/3
f 193/1/3 182/1/3 181/1/3
f 193/1/3 185/1/3 184/1/3
f 193/1/3 181/1/3 125/1/3
f 193/1/3 184/1/3 183/1/3
f 193/1/3 183/1/3 182/1/3
f 194/1/3 126/1/3 186/1/3
f 194/1/3 186/1/3 193/1/3
f 195/1/3 128/1/3 127/1/3
f 196/1/3 128/1/3 195/1/3
f 199/2/3 198/2/3 197/2/3
f 200/2/3 198/2/3 199/2/3
f 203/1/3 202/1/3 201/1/3
f 204/1/3 202/1/3 203/1/3
f 207/1/3 206/1/3 205/1/3
f 208/1/3 206/1/3 207/1/3
f 211/1/3 210/1/3 209/1/3
f 212/1/3 210/1/3 211/1/3
f 217/4/3 214/4/3 213/4/3
f 218/4/3 214/4/3 217/4/3
f 219/2/3 216/2/3 215/2/3
f 220/2/3 216/2/3 219/2/3
f 223/1/3 222/1/3 221/1/3
f 224/1/3 222/1/3 223/1/3
f 226/1/3 222/1/3 224/1/3
f 227/1/3 226/1/3 225/1/3
f 228/1/3 222/1/3 226/1/3
f 228/1/3 226/1/3 227/1/3
f 229/1/4 230/1/4 231/1/4
f 231/1/4 230/1/4 232/1/4
f 232/1/4 230/1/4 234/1/4
f 233/1/4 234/1/4 235/1/4
f 234/1/4 230/1/4 236/1/4
f 235/1/4 234/1/4 236/1/4
f 239/4/4 240/4/4 245/4/4
f 245/4/4 240/4/4 246/4/4
f 238/3/4 239/3/4 247/3/4
f 239/4/4 245/4/4 247/4/4
f 245/3/4 246/3/4 248/3/4
f 247/4/4 245/4/4 248/4/4
f 237/4/4 238/4/4 249/4/4
f 238/3/4 247/3/4 249/3/4
f 247/3/4 248/3/4 249/3/4
f 248/3/4 246/3/4 250/3/4
f 249/3/4 248/3/4 250/3/4
f 246/4/4 240/4/4 250/4/4
f 240/3/4 241/3/4 251/3/4
f 250/4/4 240/4/4 251/4/4
f 241/4/4 242/4/4 252/4/4
f 251/3/4 241/3/4 252/3/4
f 237/4/4 249/4/4 253/4/4
f 250/4/4 251/4/4 253/4/4
f 251/4/4 252/4/4 253/4/4
f 249/4/4 250/4/4 253/4/4
f 252/4/4 242/4/4 254/4/4
f 253/4/4 252/4/4 254/4/4
f 243/2/4 244/2/4 255/2/4
f 255/2/4 244/2/4 256/2/4
f 257/1/4 258/1/4 259/1/4
f 259/1/4 258/1/4 260/1/4
f 261/1/4 262/1/4 263/1/4
f 263/1/4 262/1/4 264/1/4
f 265/1/4 266/1/4 267/1/4
f 267/1/4 266/1/4 268/1/4
f 269/2/4 270/2/4 271/2/4
f 271/2/4 270/2/4 272/2/4
f 279/1/4 280/1/4 283/1/4
f 283/1/4 280/1/4 284/1/4
f 284/1/4 280/1/4 285/1/4
f 285/1/4 280/1/4 286/1/4
f 286/1/4 280/1/4 287/1/4
f 287/1/4 280/1/4 288/1/4
f 283/4/4 284/4/4 289/4/4
f 289/4/4 284/4/4 290/4/4
f 284/1/4 285/1/4 291/1/4
f 290/4/4 284/4/4 291/4/4
f 285/4/4 286/4/4 292/4/4
f 291/1/4 285/1/4 292/1/4
f 279/1/4 283/1/4 293/1/4
f 283/4/4 289/4/4 293/4/4
f 289/1/4 290/1/4 294/1/4
f 293/4/4 289/4/4 294/4/4
f 290/4/4 291/4/4 295/4/4
f 294/1/4 290/1/4 295/1/4
f 291/4/4 292/4/4 295/4/4
f 292/4/4 286/4/4 296/4/4
f 295/4/4 292/4/4 296/4/4
f 286/1/4 287/1/4 296/1/4
f 294/1/4 295/1/4 297/1/4
f 279/1/4 293/1/4 297/1/4
f 295/1/4 296/1/4 297/1/4
f 293/1/4 294/1/4 297/1/4
f 297/1/4 296/1/4 298/1/4
f 298/1/4 296/1/4 299/1/4
f 296/1/4 287/1/4 300/1/4
f 299/1/4 296/1/4 300/1/4
f 297/4/4 298/4/4 301/4/4
f 301/4/4 298/4/4 302/4/4
f 298/1/4 299/1/4 303/1/4
f 302/4/4 298/4/4 303/4/4
f 299/4/4 300/4/4 304/4/4
f 303/1/4 299/1/4 304/1/4
f 279/1/4 297/1/4 305/1/4
f 297/4/4 301/4/4 305/4/4
f 301/1/4 302/1/4 306/1/4
f 305/4/4 301/4/4 306/4/4
f 302/4/4 303/4/4 307/4/4
f 306/1/4 302/1/4 307/1/4
f 303/4/4 304/4/4 307/4/4
f 304/4/4 300/4/4 308/4/4
f 307/4/4 304/4/4 308/4/4
f 300/1/4 287/1/4 308/1/4
f 279/1/4 305/1/4 309/1/4
f 306/1/4 307/1/4 309/1/4
f 307/1/4 308/1/4 309/1/4
f 305/1/4 306/1/4 309/1/4
f 308/1/4 287/1/4 310/1/4
f 309/1/4 308/1/4 310/1/4
f 279/1/4 309/1/4 311/1/4
f 309/4/4 310/4/4 311/4/4
f 311/4/4 310/4/4 312/4/4
f 312/4/4 310/4/4 313/4/4
f 313/4/4 310/4/4 314/4/4
f 279/1/4 311/1/4 315/1/4
f 311/1/4 312/1/4 315/1/4
f 312/4/4 313/4/4 316/4/4
f 315/1/4 312/1/4 316/1/4
f 313/1/4 314/1/4 317/1/4
f 316/4/4 313/4/4 317/4/4
f 314/4/4 310/4/4 318/4/4
f 317/1/4 314/1/4 318/1/4
f 316/4/4 317/4/4 319/4/4
f 315/4/4 316/4/4 319/4/4
f 317/4/4 318/4/4 319/4/4
f 279/1/4 315/1/4 319/1/4
f 310/1/4 287/1/4 320/1/4
f 319/4/4 318/4/4 320/4/4
f 318/4/4 310/4/4 320/4/4
f 279/1/4 319/1/4 321/1/4
f 319/1/4 320/1/4 321/1/4
f 321/1/4 320/1/4 322/1/4
f 321/4/4 322/4/4 323/4/4
f 322/1/4 320/1/4 323/1/4
f 320/1/4 287/1/4 324/1/4
f 323/1/4 320/1/4 324/1/4
f 321/4/4 323/4/4 325/4/4
f 279/1/4 321/1/4 325/1/4
f 323/4/4 324/4/4 325/4/4
f 324/1/4 287/1/4 326/1/4
f 325/4/4 324/4/4 326/4/4
f 279/1/4 325/1/4 327/1/4
f 325/1/4 326/1/4 327/1/4
f 327/1/4 326/1/4 328/1/4
f 328/1/4 326/1/4 329/1/4
f 326/1/4 287/1/4 330/1/4
f 329/1/4 326/1/4 330/1/4
f 327/4/4 328/4/4 331/4/4
f 331/4/4 328/4/4 332/4/4
f 331/1/4 332/1/4 333/1/4
f 332/4/4 328/4/4 333/4/4
f 328/1/4 329/1/4 334/1/4
f 333/4/4 328/4/4 334/4/4
f 331/1/4 333/1/4 335/1/4
f 327/4/4 331/4/4 335/4/4
f 333/1/4 334/1/4 335/1/4
f 334/1/4 329/1/4 336/1/4
f 335/1/4 334/1/4 336/1/4
f 329/4/4 330/4/4 336/4/4
f 330/1/4 287/1/4 337/1/4
f 288/1/4 280/1/4 338/1/4
f 327/4/4 335/4/4 339/4/4
f 279/1/4 327/1/4 339/1/4
f 335/4/4 336/4/4 339/4/4
f 337/1/4 338/1/4 340/1/4
f 339/4/4 336/4/4 340/4/4
f 330/1/4 337/1/4 340/1/4
f 336/4/4 330/4/4 340/4/4
f 273/1/4 274/1/4 341/1/4
f 274/2/4 275/2/4 342/2/4
f 341/1/4 274/1/4 342/1/4
f 275/1/4 276/1/4 343/1/4
f 342/2/4 275/2/4 343/2/4
f 276/2/4 277/2/4 344/2/4
f 343/1/4 276/1/4 344/1/4
f 277/1/4 278/1/4 345/1/4
f 344/2/4 277/2/4 345/2/4
f 278/2/4 279/2/4 346/2/4
f 345/1/4 278/1/4 346/1/4
f 279/1/4 339/1/4 347/1/4
f 346/2/4 279/2/4 347/2/4
f 339/1/4 340/1/4 347/1/4
f 340/1/4 338/1/4 348/1/4
f 347/1/4 340/1/4 348/1/4
f 338/1/4 280/1/4 348/1/4
f 281/1/4 282/1/4 349/1/4
f 349/1/4 282/1/4 350/1/4
f 353/1/5 352/1/5 351/1/5
f 354/1/5 352/1/5 353/1/5
f 357/1/5 356/1/5 355/1/5
f 358/1/5 356/1/5 357/1/5
f 363/1/5 360/1/5 359/1/5
f 364/1/5 360/1/5 363/1/5
f 365/1/5 362/1/5 361/1/5
f 366/1/5 362/1/5 365/1/5
f 369/1/5 368/1/5 367/1/5
f 370/1/5 368/1/5 369/1/5
f 373/2/5 372/2/5 371/2/5
f 374/2/5 372/2/5 373/2/5
f 375/2/5 373/2/5 371/2/5
f 376/2/5 372/2/5 374/2/5
f 377/2/5 375/2/5 371/2/5
f 377/2/5 376/2/5 375/2/5
f 378/2/5 372/2/5 376/2/5
f 378/2/5 376/2/5 377/2/5
f 381/1/5 380/1/5 379/1/5
f 382/1/5 380/1/5 381/1/5
f 385/1/5 384/1/5 383/1/5
f 386/1/5 384/1/5 385/1/5
f 387/1/5 385/1/5 383/1/5
f 388/1/5 384/1/5 386/1/5
f 389/1/5 387/1/5 383/1/5
f 389/1/5 388/1/5 387/1/5
f 390/1/5 384/1/5 388/1/5
f 390/1/5 388/1/5 389/1/5
f 391/1/5 381/1/5 379/1/5
f 392/1/5 380/1/5 382/1/5
f 393/1/5 391/1/5 379/1/5
f 393/1/5 392/1/5 391/1/5
f 394/1/5 380/1/5 392/1/5
f 394/1/5 392/1/5 393/1/5
f 395/2/6 396/2/6 397/2/6
f 397/2/6 396/2/6 398/2/6
f 399/1/6 400/1/6 402/1/6
f 402/1/6 400/1/6 403/1/6
f 401/4/6 402/4/6 405/4/6
f 403/4/6 404/4/6 405/4/6
f 402/4/6 403/4/6 405/4/6
f 405/4/6 404/4/6 406/4/6
f 401/4/6 405/4/6 408/4/6
f 406/4/6 404/4/6 409/4/6
f 407/1/6 408/1/6 411/1/6
f 408/4/6 405/4/6 412/4/6
f 411/1/6 408/1/6 412/1/6
f 409/1/6 410/1/6 413/1/6
f 406/4/6 409/4/6 413/4/6
f 413/1/6 410/1/6 414/1/6
f 412/4/6 405/4/6 415/4/6
f 406/4/6 413/4/6 416/4/6
f 412/4/6 415/4/6 417/4/6
f 415/4/6 416/4/6 417/4/6
f 417/4/6 416/4/6 418/4/6
f 418/4/6 416/4/6 419/4/6
f 416/4/6 413/4/6 420/4/6
f 419/4/6 416/4/6 420/4/6
f 418/1/6 419/1/6 421/1/6
f 421/1/6 419/1/6 422/1/6
f 423/1/6 424/1/6 425/1/6
f 425/1/6 424/1/6 426/1/6
f 423/1/6 425/1/6 427/1/6
f 426/1/6 424/1/6 428/1/6
f 423/1/6 427/1/6 429/1/6
f 427/1/6 428/1/6 429/1/6
f 428/1/6 424/1/6 430/1/6
f 429/1/6 428/1/6 430/1/6
f 431/1/6 432/1/6 433/1/6
f 433/1/6 432/1/6 434/1/6
f 431/1/6 433/1/6 435/1/6
f 434/1/6 432/1/6 436/1/6
f 431/1/6 435/1/6 437/1/6
f 435/1/6 436/1/6 437/1/6
f 436/1/6 432/1/6 438/1/6
f 437/1/6 436/1/6 438/1/6
