# MagicaVoxel @ Ephtracy

# group
o 

# material
mtllib Plastic bottle.mtl
usemtl palette

# normals
vn -1 0 0
vn 1 0 0
vn 0 0 1
vn 0 0 -1
vn 0 -1 0
vn 0 1 0

# texcoords
vt 0.685547 0.5
vt 0.705078 0.5
vt 0.736328 0.5
vt 0.748047 0.5
vt 0.771484 0.5
vt 0.775391 0.5
vt 0.779297 0.5
vt 0.958984 0.5
vt 0.962891 0.5
vt 0.994141 0.5

# verts
v -0.8 0 0.4
v -0.8 0 0.2
v -0.8 0.3 0.4
v -0.8 0.3 0.2
v -0.8 0.4 0.4
v -0.8 0.4 0.2
v -0.8 0.8 0.4
v -0.8 0.8 0.2
v -0.8 0.9 0.4
v -0.8 0.9 0.2
v -0.8 1.3 0.4
v -0.8 1.3 0.2
v -0.8 1.4 0.4
v -0.8 1.4 0.2
v -0.8 1.8 0.4
v -0.8 1.8 0.2
v -0.8 1.9 0.4
v -0.8 1.9 0.2
v -0.8 2.2 0.4
v -0.8 2.2 0.2
v -0.7 2.2 0.4
v -0.7 2.2 0.2
v -0.7 2.3 0.4
v -0.7 2.3 0.2
v -0.6 2.3 0.4
v -0.6 2.3 0.2
v -0.6 2.4 0.4
v -0.6 2.4 0.2
v -0.5 2.4 0.4
v -0.5 2.4 0.2
v -0.5 2.5 0.4
v -0.5 2.5 0.2
v -0.4 2.7 0.4
v -0.4 2.7 0.2
v -0.4 3 0.4
v -0.4 3 0.2
v -0.3 2.5 0.4
v -0.3 2.5 0.2
v -0.3 2.7 0.4
v -0.3 2.7 0.2
v 0.1 2.5 0.4
v 0.1 2.5 0.2
v 0.1 2.7 0.4
v 0.1 2.7 0.2
v 0.2 2.7 0.4
v 0.2 2.7 0.2
v 0.2 3 0.4
v 0.2 3 0.2
v 0.3 2.4 0.4
v 0.3 2.4 0.2
v 0.3 2.5 0.4
v 0.3 2.5 0.2
v 0.4 2.3 0.4
v 0.4 2.3 0.2
v 0.4 2.4 0.4
v 0.4 2.4 0.2
v 0.5 2.2 0.4
v 0.5 2.2 0.2
v 0.5 2.3 0.4
v 0.5 2.3 0.2
v 0.6 0 0.4
v 0.6 0 0.2
v 0.6 0.3 0.4
v 0.6 0.3 0.2
v 0.6 0.4 0.4
v 0.6 0.4 0.2
v 0.6 0.8 0.4
v 0.6 0.8 0.2
v 0.6 0.9 0.4
v 0.6 0.9 0.2
v 0.6 1.3 0.4
v 0.6 1.3 0.2
v 0.6 1.4 0.4
v 0.6 1.4 0.2
v 0.6 1.8 0.4
v 0.6 1.8 0.2
v 0.6 1.9 0.4
v 0.6 1.9 0.2
v 0.6 2.2 0.4
v 0.6 2.2 0.2
v -0.8 0 0.4
v -0.8 0.3 0.4
v -0.8 0.4 0.4
v -0.8 0.8 0.4
v -0.8 0.9 0.4
v -0.8 1.3 0.4
v -0.8 1.4 0.4
v -0.8 1.8 0.4
v -0.8 1.9 0.4
v -0.8 2.2 0.4
v -0.7 0.1 0.4
v -0.7 0.3 0.4
v -0.7 0.4 0.4
v -0.7 0.8 0.4
v -0.7 0.9 0.4
v -0.7 1.3 0.4
v -0.7 1.4 0.4
v -0.7 1.8 0.4
v -0.7 1.9 0.4
v -0.7 2.2 0.4
v -0.7 2.3 0.4
v -0.6 0.2 0.4
v -0.6 0.3 0.4
v -0.6 2.2 0.4
v -0.6 2.3 0.4
v -0.6 2.4 0.4
v -0.5 0.2 0.4
v -0.5 0.3 0.4
v -0.5 0.4 0.4
v -0.5 0.8 0.4
v -0.5 0.9 0.4
v -0.5 1.3 0.4
v -0.5 1.4 0.4
v -0.5 1.8 0.4
v -0.5 1.9 0.4
v -0.5 2.1 0.4
v -0.5 2.3 0.4
v -0.5 2.4 0.4
v -0.5 2.5 0.4
v -0.4 0.4 0.4
v -0.4 0.6 0.4
v -0.4 1.1 0.4
v -0.4 1.2 0.4
v -0.4 1.6 0.4
v -0.4 1.8 0.4
v -0.4 2.1 0.4
v -0.4 2.2 0.4
v -0.4 2.7 0.4
v -0.4 3 0.4
v -0.3 0.3 0.4
v -0.3 0.4 0.4
v -0.3 0.6 0.4
v -0.3 0.8 0.4
v -0.3 0.9 0.4
v -0.3 1.1 0.4
v -0.3 1.2 0.4
v -0.3 1.3 0.4
v -0.3 1.4 0.4
v -0.3 1.5 0.4
v -0.3 1.6 0.4
v -0.3 1.8 0.4
v -0.3 1.9 0.4
v -0.3 2.1 0.4
v -0.3 2.2 0.4
v -0.3 2.4 0.4
v -0.3 2.5 0.4
v -0.3 2.7 0.4
v -0.3 2.8 0.4
v -0.3 2.9 0.4
v -0.2 2.2 0.4
v -0.2 2.4 0.4
v -0.2 2.5 0.4
v -0.2 2.7 0.4
v -0.1 0.6 0.4
v -0.1 0.7 0.4
v -0.1 2.8 0.4
v -0.1 2.9 0.4
v 5.96046e-08 0.7 0.4
v 5.96046e-08 0.8 0.4
v 5.96046e-08 0.9 0.4
v 5.96046e-08 1.1 0.4
v 5.96046e-08 1.4 0.4
v 5.96046e-08 1.5 0.4
v 5.96046e-08 1.9 0.4
v 5.96046e-08 2.1 0.4
v 5.96046e-08 2.5 0.4
v 5.96046e-08 2.7 0.4
v 5.96046e-08 2.8 0.4
v 5.96046e-08 2.9 0.4
v 0.1 0.3 0.4
v 0.1 0.4 0.4
v 0.1 0.8 0.4
v 0.1 2.4 0.4
v 0.1 2.5 0.4
v 0.1 2.7 0.4
v 0.1 2.8 0.4
v 0.1 2.9 0.4
v 0.2 0.8 0.4
v 0.2 0.9 0.4
v 0.2 1.3 0.4
v 0.2 1.4 0.4
v 0.2 1.8 0.4
v 0.2 1.9 0.4
v 0.2 2.2 0.4
v 0.2 2.7 0.4
v 0.2 3 0.4
v 0.3 0.3 0.4
v 0.3 0.4 0.4
v 0.3 0.8 0.4
v 0.3 0.9 0.4
v 0.3 1.3 0.4
v 0.3 1.4 0.4
v 0.3 1.8 0.4
v 0.3 1.9 0.4
v 0.3 2.3 0.4
v 0.3 2.4 0.4
v 0.3 2.5 0.4
v 0.4 0.2 0.4
v 0.4 0.3 0.4
v 0.4 0.5 0.4
v 0.4 0.8 0.4
v 0.4 1.4 0.4
v 0.4 1.8 0.4
v 0.4 2.2 0.4
v 0.4 2.3 0.4
v 0.4 2.4 0.4
v 0.5 0.1 0.4
v 0.5 0.2 0.4
v 0.5 0.3 0.4
v 0.5 0.4 0.4
v 0.5 0.5 0.4
v 0.5 0.8 0.4
v 0.5 0.9 0.4
v 0.5 1.3 0.4
v 0.5 1.4 0.4
v 0.5 1.8 0.4
v 0.5 1.9 0.4
v 0.5 2.2 0.4
v 0.5 2.3 0.4
v 0.6 0 0.4
v 0.6 0.3 0.4
v 0.6 0.4 0.4
v 0.6 0.8 0.4
v 0.6 0.9 0.4
v 0.6 1.3 0.4
v 0.6 1.4 0.4
v 0.6 1.8 0.4
v 0.6 1.9 0.4
v 0.6 2.2 0.4
v -0.8 0 0.2
v -0.8 0.3 0.2
v -0.8 0.4 0.2
v -0.8 0.8 0.2
v -0.8 0.9 0.2
v -0.8 1.3 0.2
v -0.8 1.4 0.2
v -0.8 1.8 0.2
v -0.8 1.9 0.2
v -0.8 2.2 0.2
v -0.7 0.1 0.2
v -0.7 0.3 0.2
v -0.7 0.4 0.2
v -0.7 0.8 0.2
v -0.7 0.9 0.2
v -0.7 1.3 0.2
v -0.7 1.4 0.2
v -0.7 1.8 0.2
v -0.7 1.9 0.2
v -0.7 2.2 0.2
v -0.7 2.3 0.2
v -0.6 2.2 0.2
v -0.6 2.3 0.2
v -0.6 2.4 0.2
v -0.5 0.2 0.2
v -0.5 0.3 0.2
v -0.5 0.4 0.2
v -0.5 0.8 0.2
v -0.5 0.9 0.2
v -0.5 1.3 0.2
v -0.5 1.4 0.2
v -0.5 1.8 0.2
v -0.5 1.9 0.2
v -0.5 2.2 0.2
v -0.5 2.3 0.2
v -0.5 2.4 0.2
v -0.5 2.5 0.2
v -0.4 0.2 0.2
v -0.4 0.3 0.2
v -0.4 0.4 0.2
v -0.4 0.6 0.2
v -0.4 2.2 0.2
v -0.4 2.3 0.2
v -0.4 2.7 0.2
v -0.4 3 0.2
v -0.3 0.4 0.2
v -0.3 0.6 0.2
v -0.3 0.8 0.2
v -0.3 0.9 0.2
v -0.3 1 0.2
v -0.3 1.3 0.2
v -0.3 1.4 0.2
v -0.3 1.5 0.2
v -0.3 1.8 0.2
v -0.3 1.9 0.2
v -0.3 2.1 0.2
v -0.3 2.2 0.2
v -0.3 2.3 0.2
v -0.3 2.4 0.2
v -0.3 2.5 0.2
v -0.3 2.7 0.2
v -0.3 2.8 0.2
v -0.3 2.9 0.2
v -0.2 2.2 0.2
v -0.2 2.4 0.2
v -0.2 2.5 0.2
v -0.2 2.7 0.2
v -0.2 2.8 0.2
v -0.2 2.9 0.2
v -0.1 0.6 0.2
v -0.1 0.7 0.2
v -0.1 2.8 0.2
v -0.1 2.9 0.2
v 5.96046e-08 2.5 0.2
v 5.96046e-08 2.7 0.2
v 0.1 0.7 0.2
v 0.1 0.8 0.2
v 0.1 0.9 0.2
v 0.1 1 0.2
v 0.1 1.4 0.2
v 0.1 1.5 0.2
v 0.1 1.9 0.2
v 0.1 2.1 0.2
v 0.1 2.4 0.2
v 0.1 2.5 0.2
v 0.1 2.7 0.2
v 0.1 2.8 0.2
v 0.1 2.9 0.2
v 0.2 0.3 0.2
v 0.2 0.4 0.2
v 0.2 0.8 0.2
v 0.2 0.9 0.2
v 0.2 1.3 0.2
v 0.2 1.4 0.2
v 0.2 1.8 0.2
v 0.2 1.9 0.2
v 0.2 2.2 0.2
v 0.2 2.7 0.2
v 0.2 3 0.2
v 0.3 0.4 0.2
v 0.3 0.5 0.2
v 0.3 1.9 0.2
v 0.3 2.3 0.2
v 0.3 2.4 0.2
v 0.3 2.5 0.2
v 0.4 0.4 0.2
v 0.4 0.5 0.2
v 0.4 0.8 0.2
v 0.4 0.9 0.2
v 0.4 1.3 0.2
v 0.4 1.4 0.2
v 0.4 1.8 0.2
v 0.4 1.9 0.2
v 0.4 2.2 0.2
v 0.4 2.3 0.2
v 0.4 2.4 0.2
v 0.5 0.1 0.2
v 0.5 0.3 0.2
v 0.5 0.4 0.2
v 0.5 0.5 0.2
v 0.5 0.8 0.2
v 0.5 0.9 0.2
v 0.5 1.3 0.2
v 0.5 1.4 0.2
v 0.5 1.8 0.2
v 0.5 1.9 0.2
v 0.5 2.2 0.2
v 0.5 2.3 0.2
v 0.6 0 0.2
v 0.6 0.3 0.2
v 0.6 0.4 0.2
v 0.6 0.8 0.2
v 0.6 0.9 0.2
v 0.6 1.3 0.2
v 0.6 1.4 0.2
v 0.6 1.8 0.2
v 0.6 1.9 0.2
v 0.6 2.2 0.2
v -0.8 0 0.4
v 0.6 0 0.4
v -0.8 0 0.2
v 0.6 0 0.2
v -0.4 2.7 0.4
v -0.3 2.7 0.4
v 0.1 2.7 0.4
v 0.2 2.7 0.4
v -0.4 2.7 0.2
v -0.3 2.7 0.2
v 0.1 2.7 0.2
v 0.2 2.7 0.2
v -0.8 2.2 0.4
v -0.7 2.2 0.4
v 0.5 2.2 0.4
v 0.6 2.2 0.4
v -0.8 2.2 0.2
v -0.7 2.2 0.2
v 0.5 2.2 0.2
v 0.6 2.2 0.2
v -0.7 2.3 0.4
v -0.6 2.3 0.4
v 0.4 2.3 0.4
v 0.5 2.3 0.4
v -0.7 2.3 0.2
v -0.6 2.3 0.2
v 0.4 2.3 0.2
v 0.5 2.3 0.2
v -0.6 2.4 0.4
v -0.5 2.4 0.4
v 0.3 2.4 0.4
v 0.4 2.4 0.4
v -0.6 2.4 0.2
v -0.5 2.4 0.2
v 0.3 2.4 0.2
v 0.4 2.4 0.2
v -0.5 2.5 0.4
v -0.3 2.5 0.4
v 0.1 2.5 0.4
v 0.3 2.5 0.4
v -0.5 2.5 0.2
v -0.3 2.5 0.2
v 0.1 2.5 0.2
v 0.3 2.5 0.2
v -0.4 3 0.4
v 0.2 3 0.4
v -0.4 3 0.2
v 0.2 3 0.2

# faces
f 3/10/1 2/10/1 1/10/1
f 4/10/1 2/10/1 3/10/1
f 5/8/1 4/8/1 3/8/1
f 6/8/1 4/8/1 5/8/1
f 7/10/1 6/10/1 5/10/1
f 8/10/1 6/10/1 7/10/1
f 9/8/1 8/8/1 7/8/1
f 10/8/1 8/8/1 9/8/1
f 11/10/1 10/10/1 9/10/1
f 12/10/1 10/10/1 11/10/1
f 13/8/1 12/8/1 11/8/1
f 14/8/1 12/8/1 13/8/1
f 15/10/1 14/10/1 13/10/1
f 16/10/1 14/10/1 15/10/1
f 17/8/1 16/8/1 15/8/1
f 18/8/1 16/8/1 17/8/1
f 19/10/1 18/10/1 17/10/1
f 20/10/1 18/10/1 19/10/1
f 23/10/1 22/10/1 21/10/1
f 24/10/1 22/10/1 23/10/1
f 27/10/1 26/10/1 25/10/1
f 28/10/1 26/10/1 27/10/1
f 31/10/1 30/10/1 29/10/1
f 32/10/1 30/10/1 31/10/1
f 35/10/1 34/10/1 33/10/1
f 36/10/1 34/10/1 35/10/1
f 39/10/1 38/10/1 37/10/1
f 40/10/1 38/10/1 39/10/1
f 41/10/2 42/10/2 43/10/2
f 43/10/2 42/10/2 44/10/2
f 45/10/2 46/10/2 47/10/2
f 47/10/2 46/10/2 48/10/2
f 49/10/2 50/10/2 51/10/2
f 51/10/2 50/10/2 52/10/2
f 53/10/2 54/10/2 55/10/2
f 55/10/2 54/10/2 56/10/2
f 57/10/2 58/10/2 59/10/2
f 59/10/2 58/10/2 60/10/2
f 61/10/2 62/10/2 63/10/2
f 63/10/2 62/10/2 64/10/2
f 63/8/2 64/8/2 65/8/2
f 65/8/2 64/8/2 66/8/2
f 65/10/2 66/10/2 67/10/2
f 67/10/2 66/10/2 68/10/2
f 67/8/2 68/8/2 69/8/2
f 69/8/2 68/8/2 70/8/2
f 69/10/2 70/10/2 71/10/2
f 71/10/2 70/10/2 72/10/2
f 71/8/2 72/8/2 73/8/2
f 73/8/2 72/8/2 74/8/2
f 73/10/2 74/10/2 75/10/2
f 75/10/2 74/10/2 76/10/2
f 75/8/2 76/8/2 77/8/2
f 77/8/2 76/8/2 78/8/2
f 77/10/2 78/10/2 79/10/2
f 79/10/2 78/10/2 80/10/2
f 91/10/3 82/10/3 81/10/3
f 92/8/3 83/8/3 82/8/3
f 92/10/3 82/10/3 91/10/3
f 93/10/3 84/10/3 83/10/3
f 93/8/3 83/8/3 92/8/3
f 94/8/3 85/8/3 84/8/3
f 94/10/3 84/10/3 93/10/3
f 95/10/3 86/10/3 85/10/3
f 95/8/3 85/8/3 94/8/3
f 96/8/3 87/8/3 86/8/3
f 96/10/3 86/10/3 95/10/3
f 97/10/3 88/10/3 87/10/3
f 97/8/3 87/8/3 96/8/3
f 98/8/3 89/8/3 88/8/3
f 98/10/3 88/10/3 97/10/3
f 99/10/3 90/10/3 89/10/3
f 99/8/3 89/8/3 98/8/3
f 100/10/3 90/10/3 99/10/3
f 102/4/3 92/4/3 91/4/3
f 103/5/3 93/5/3 92/5/3
f 103/4/3 92/4/3 102/4/3
f 104/10/3 101/10/3 100/10/3
f 104/4/3 100/4/3 99/4/3
f 105/10/3 101/10/3 104/10/3
f 107/4/3 102/4/3 91/4/3
f 107/9/3 103/9/3 102/9/3
f 108/5/3 93/5/3 103/5/3
f 108/9/3 103/9/3 107/9/3
f 109/4/3 94/4/3 93/4/3
f 109/5/3 93/5/3 108/5/3
f 110/5/3 95/5/3 94/5/3
f 110/4/3 94/4/3 109/4/3
f 111/4/3 96/4/3 95/4/3
f 111/5/3 95/5/3 110/5/3
f 112/5/3 97/5/3 96/5/3
f 112/4/3 96/4/3 111/4/3
f 113/4/3 98/4/3 97/4/3
f 113/5/3 97/5/3 112/5/3
f 114/5/3 99/5/3 98/5/3
f 114/4/3 98/4/3 113/4/3
f 115/4/3 105/4/3 104/4/3
f 115/5/3 99/5/3 114/5/3
f 115/4/3 104/4/3 99/4/3
f 116/4/3 105/4/3 115/4/3
f 117/10/3 106/10/3 105/10/3
f 117/4/3 105/4/3 116/4/3
f 118/10/3 106/10/3 117/10/3
f 120/7/3 109/7/3 108/7/3
f 120/9/3 110/9/3 109/9/3
f 121/9/3 110/9/3 120/9/3
f 122/9/3 112/9/3 111/9/3
f 123/9/3 112/9/3 122/9/3
f 124/9/3 114/9/3 113/9/3
f 125/7/3 115/7/3 114/7/3
f 125/9/3 114/9/3 124/9/3
f 126/9/3 116/9/3 115/9/3
f 126/4/3 118/4/3 117/4/3
f 126/4/3 117/4/3 116/4/3
f 127/4/3 118/4/3 126/4/3
f 130/4/3 108/4/3 107/4/3
f 130/7/3 120/7/3 108/7/3
f 131/1/3 121/1/3 120/1/3
f 131/7/3 120/7/3 130/7/3
f 132/9/3 110/9/3 121/9/3
f 132/1/3 121/1/3 131/1/3
f 133/7/3 111/7/3 110/7/3
f 133/9/3 110/9/3 132/9/3
f 134/9/3 122/9/3 111/9/3
f 134/7/3 111/7/3 133/7/3
f 135/1/3 123/1/3 122/1/3
f 135/9/3 122/9/3 134/9/3
f 136/9/3 112/9/3 123/9/3
f 136/1/3 123/1/3 135/1/3
f 137/7/3 113/7/3 112/7/3
f 137/9/3 112/9/3 136/9/3
f 138/9/3 124/9/3 113/9/3
f 138/7/3 113/7/3 137/7/3
f 139/9/3 124/9/3 138/9/3
f 140/1/3 125/1/3 124/1/3
f 140/9/3 124/9/3 139/9/3
f 141/7/3 115/7/3 125/7/3
f 141/1/3 125/1/3 140/1/3
f 142/9/3 126/9/3 115/9/3
f 142/7/3 115/7/3 141/7/3
f 142/9/3 127/9/3 126/9/3
f 143/9/3 127/9/3 142/9/3
f 144/4/3 118/4/3 127/4/3
f 144/9/3 127/9/3 143/9/3
f 145/10/3 119/10/3 118/10/3
f 145/4/3 118/4/3 144/4/3
f 146/10/3 119/10/3 145/10/3
f 147/10/3 129/10/3 128/10/3
f 148/10/3 129/10/3 147/10/3
f 149/10/3 129/10/3 148/10/3
f 150/2/3 144/2/3 143/2/3
f 150/8/3 145/8/3 144/8/3
f 151/4/3 146/4/3 145/4/3
f 151/8/3 145/8/3 150/8/3
f 152/10/3 147/10/3 146/10/3
f 152/4/3 146/4/3 151/4/3
f 153/3/3 148/3/3 147/3/3
f 153/10/3 147/10/3 152/10/3
f 154/2/3 132/2/3 131/2/3
f 154/4/3 133/4/3 132/4/3
f 155/4/3 133/4/3 154/4/3
f 156/3/3 148/3/3 153/3/3
f 156/4/3 149/4/3 148/4/3
f 157/10/3 129/10/3 149/10/3
f 157/4/3 149/4/3 156/4/3
f 158/4/3 133/4/3 155/4/3
f 158/2/3 155/2/3 154/2/3
f 159/6/3 134/6/3 133/6/3
f 159/4/3 133/4/3 158/4/3
f 160/4/3 135/4/3 134/4/3
f 160/6/3 134/6/3 159/6/3
f 161/2/3 136/2/3 135/2/3
f 161/4/3 135/4/3 160/4/3
f 161/2/3 137/2/3 136/2/3
f 162/4/3 139/4/3 138/4/3
f 162/6/3 138/6/3 137/6/3
f 163/2/3 140/2/3 139/2/3
f 163/4/3 139/4/3 162/4/3
f 163/2/3 141/2/3 140/2/3
f 164/4/3 143/4/3 142/4/3
f 164/6/3 142/6/3 141/6/3
f 165/2/3 150/2/3 143/2/3
f 165/4/3 143/4/3 164/4/3
f 166/4/3 153/4/3 152/4/3
f 166/4/3 152/4/3 151/4/3
f 166/4/3 151/4/3 150/4/3
f 167/3/3 156/3/3 153/3/3
f 167/4/3 153/4/3 166/4/3
f 168/8/3 157/8/3 156/8/3
f 168/3/3 156/3/3 167/3/3
f 169/10/3 129/10/3 157/10/3
f 169/8/3 157/8/3 168/8/3
f 170/6/3 131/6/3 130/6/3
f 170/4/3 130/4/3 107/4/3
f 171/2/3 159/2/3 158/2/3
f 171/6/3 131/6/3 170/6/3
f 171/2/3 154/2/3 131/2/3
f 171/2/3 158/2/3 154/2/3
f 172/6/3 160/6/3 159/6/3
f 172/2/3 159/2/3 171/2/3
f 173/4/3 166/4/3 150/4/3
f 174/10/3 167/10/3 166/10/3
f 174/4/3 166/4/3 173/4/3
f 175/3/3 168/3/3 167/3/3
f 175/10/3 167/10/3 174/10/3
f 176/4/3 169/4/3 168/4/3
f 176/3/3 168/3/3 175/3/3
f 177/10/3 129/10/3 169/10/3
f 177/4/3 169/4/3 176/4/3
f 178/6/3 160/6/3 172/6/3
f 178/4/3 172/4/3 171/4/3
f 179/2/3 161/2/3 160/2/3
f 179/6/3 160/6/3 178/6/3
f 180/6/3 162/6/3 137/6/3
f 180/2/3 161/2/3 179/2/3
f 180/2/3 137/2/3 161/2/3
f 181/2/3 163/2/3 162/2/3
f 181/6/3 162/6/3 180/6/3
f 182/6/3 164/6/3 141/6/3
f 182/2/3 163/2/3 181/2/3
f 182/2/3 141/2/3 163/2/3
f 183/2/3 165/2/3 164/2/3
f 183/6/3 164/6/3 182/6/3
f 184/4/3 173/4/3 150/4/3
f 184/2/3 165/2/3 183/2/3
f 184/2/3 150/2/3 165/2/3
f 185/10/3 176/10/3 175/10/3
f 185/10/3 177/10/3 176/10/3
f 186/10/3 129/10/3 177/10/3
f 186/10/3 177/10/3 185/10/3
f 187/5/3 171/5/3 170/5/3
f 187/4/3 170/4/3 107/4/3
f 188/4/3 178/4/3 171/4/3
f 188/5/3 171/5/3 187/5/3
f 189/5/3 179/5/3 178/5/3
f 189/4/3 178/4/3 188/4/3
f 190/4/3 180/4/3 179/4/3
f 190/5/3 179/5/3 189/5/3
f 191/5/3 181/5/3 180/5/3
f 191/4/3 180/4/3 190/4/3
f 192/4/3 182/4/3 181/4/3
f 192/5/3 181/5/3 191/5/3
f 193/5/3 183/5/3 182/5/3
f 193/4/3 182/4/3 192/4/3
f 194/4/3 184/4/3 183/4/3
f 194/5/3 183/5/3 193/5/3
f 195/4/3 173/4/3 184/4/3
f 195/4/3 184/4/3 194/4/3
f 196/10/3 174/10/3 173/10/3
f 196/4/3 173/4/3 195/4/3
f 197/10/3 174/10/3 196/10/3
f 198/4/3 107/4/3 91/4/3
f 198/4/3 187/4/3 107/4/3
f 199/7/3 188/7/3 187/7/3
f 199/4/3 187/4/3 198/4/3
f 200/9/3 189/9/3 188/9/3
f 201/7/3 190/7/3 189/7/3
f 201/9/3 189/9/3 200/9/3
f 202/7/3 192/7/3 191/7/3
f 202/9/3 193/9/3 192/9/3
f 203/7/3 194/7/3 193/7/3
f 203/9/3 193/9/3 202/9/3
f 204/9/3 195/9/3 194/9/3
f 205/10/3 196/10/3 195/10/3
f 205/9/3 195/9/3 204/9/3
f 206/10/3 196/10/3 205/10/3
f 207/10/3 91/10/3 81/10/3
f 207/4/3 198/4/3 91/4/3
f 208/9/3 199/9/3 198/9/3
f 208/4/3 198/4/3 207/4/3
f 209/7/3 188/7/3 199/7/3
f 209/9/3 199/9/3 208/9/3
f 210/9/3 200/9/3 188/9/3
f 210/7/3 188/7/3 209/7/3
f 211/4/3 201/4/3 200/4/3
f 211/9/3 200/9/3 210/9/3
f 212/7/3 190/7/3 201/7/3
f 212/4/3 201/4/3 211/4/3
f 213/9/3 191/9/3 190/9/3
f 213/7/3 190/7/3 212/7/3
f 214/7/3 202/7/3 191/7/3
f 214/9/3 191/9/3 213/9/3
f 215/4/3 203/4/3 202/4/3
f 215/7/3 202/7/3 214/7/3
f 216/7/3 194/7/3 203/7/3
f 216/4/3 203/4/3 215/4/3
f 217/9/3 204/9/3 194/9/3
f 217/7/3 194/7/3 216/7/3
f 218/10/3 205/10/3 204/10/3
f 218/9/3 204/9/3 217/9/3
f 219/10/3 205/10/3 218/10/3
f 220/10/3 209/10/3 208/10/3
f 220/10/3 208/10/3 207/10/3
f 220/10/3 207/10/3 81/10/3
f 221/8/3 210/8/3 209/8/3
f 221/10/3 209/10/3 220/10/3
f 222/10/3 212/10/3 211/10/3
f 222/8/3 210/8/3 221/8/3
f 222/10/3 211/10/3 210/10/3
f 223/8/3 213/8/3 212/8/3
f 223/10/3 212/10/3 222/10/3
f 224/10/3 214/10/3 213/10/3
f 224/8/3 213/8/3 223/8/3
f 225/8/3 215/8/3 214/8/3
f 225/10/3 214/10/3 224/10/3
f 226/10/3 216/10/3 215/10/3
f 226/8/3 215/8/3 225/8/3
f 227/8/3 217/8/3 216/8/3
f 227/10/3 216/10/3 226/10/3
f 228/10/3 218/10/3 217/10/3
f 228/8/3 217/8/3 227/8/3
f 229/10/3 218/10/3 228/10/3
f 230/10/4 231/10/4 240/10/4
f 231/8/4 232/8/4 241/8/4
f 240/10/4 231/10/4 241/10/4
f 232/10/4 233/10/4 242/10/4
f 241/8/4 232/8/4 242/8/4
f 233/8/4 234/8/4 243/8/4
f 242/10/4 233/10/4 243/10/4
f 234/10/4 235/10/4 244/10/4
f 243/8/4 234/8/4 244/8/4
f 235/8/4 236/8/4 245/8/4
f 244/10/4 235/10/4 245/10/4
f 236/10/4 237/10/4 246/10/4
f 245/8/4 236/8/4 246/8/4
f 237/8/4 238/8/4 247/8/4
f 246/10/4 237/10/4 247/10/4
f 238/10/4 239/10/4 248/10/4
f 247/8/4 238/8/4 248/8/4
f 248/10/4 239/10/4 249/10/4
f 248/4/4 249/4/4 251/4/4
f 249/10/4 250/10/4 251/10/4
f 251/10/4 250/10/4 252/10/4
f 240/4/4 241/4/4 254/4/4
f 241/5/4 242/5/4 255/5/4
f 254/4/4 241/4/4 255/4/4
f 242/4/4 243/4/4 256/4/4
f 255/5/4 242/5/4 256/5/4
f 243/5/4 244/5/4 257/5/4
f 256/4/4 243/4/4 257/4/4
f 244/4/4 245/4/4 258/4/4
f 257/5/4 244/5/4 258/5/4
f 245/5/4 246/5/4 259/5/4
f 258/4/4 245/4/4 259/4/4
f 246/4/4 247/4/4 260/4/4
f 259/5/4 246/5/4 260/5/4
f 247/5/4 248/5/4 261/5/4
f 260/4/4 247/4/4 261/4/4
f 248/4/4 251/4/4 262/4/4
f 261/5/4 248/5/4 262/5/4
f 251/4/4 252/4/4 262/4/4
f 262/4/4 252/4/4 263/4/4
f 252/10/4 253/10/4 264/10/4
f 263/4/4 252/4/4 264/4/4
f 264/10/4 253/10/4 265/10/4
f 240/4/4 254/4/4 267/4/4
f 254/9/4 255/9/4 267/9/4
f 255/7/4 256/7/4 268/7/4
f 267/9/4 255/9/4 268/9/4
f 256/9/4 257/9/4 269/9/4
f 268/7/4 256/7/4 269/7/4
f 269/9/4 257/9/4 270/9/4
f 262/9/4 263/9/4 271/9/4
f 264/4/4 265/4/4 271/4/4
f 263/4/4 264/4/4 271/4/4
f 271/4/4 265/4/4 272/4/4
f 269/1/4 270/1/4 275/1/4
f 268/6/4 269/6/4 275/6/4
f 270/9/4 257/9/4 276/9/4
f 275/1/4 270/1/4 276/1/4
f 257/7/4 258/7/4 277/7/4
f 276/9/4 257/9/4 277/9/4
f 258/9/4 259/9/4 278/9/4
f 277/7/4 258/7/4 278/7/4
f 278/9/4 259/9/4 279/9/4
f 259/7/4 260/7/4 280/7/4
f 279/9/4 259/9/4 280/9/4
f 260/9/4 261/9/4 281/9/4
f 280/7/4 260/7/4 281/7/4
f 281/9/4 261/9/4 282/9/4
f 261/7/4 262/7/4 283/7/4
f 282/9/4 261/9/4 283/9/4
f 262/9/4 271/9/4 284/9/4
f 283/7/4 262/7/4 284/7/4
f 271/9/4 272/9/4 284/9/4
f 284/9/4 272/9/4 285/9/4
f 285/9/4 272/9/4 286/9/4
f 272/4/4 265/4/4 287/4/4
f 286/9/4 272/9/4 287/9/4
f 265/10/4 266/10/4 288/10/4
f 287/4/4 265/4/4 288/4/4
f 288/10/4 266/10/4 289/10/4
f 273/10/4 274/10/4 290/10/4
f 290/10/4 274/10/4 291/10/4
f 291/10/4 274/10/4 292/10/4
f 286/8/4 287/8/4 293/8/4
f 285/2/4 286/2/4 293/2/4
f 287/8/4 288/8/4 293/8/4
f 288/4/4 289/4/4 294/4/4
f 293/8/4 288/8/4 294/8/4
f 289/10/4 290/10/4 295/10/4
f 294/4/4 289/4/4 295/4/4
f 290/3/4 291/3/4 296/3/4
f 295/10/4 290/10/4 296/10/4
f 291/4/4 292/4/4 297/4/4
f 296/3/4 291/3/4 297/3/4
f 292/10/4 274/10/4 298/10/4
f 297/4/4 292/4/4 298/4/4
f 276/4/4 277/4/4 299/4/4
f 275/2/4 276/2/4 299/2/4
f 299/4/4 277/4/4 300/4/4
f 296/3/4 297/3/4 301/3/4
f 297/8/4 298/8/4 301/8/4
f 298/10/4 274/10/4 302/10/4
f 301/8/4 298/8/4 302/8/4
f 295/4/4 296/4/4 303/4/4
f 294/4/4 295/4/4 303/4/4
f 293/4/4 294/4/4 303/4/4
f 296/3/4 301/3/4 304/3/4
f 303/4/4 296/4/4 304/4/4
f 300/4/4 277/4/4 305/4/4
f 299/2/4 300/2/4 305/2/4
f 277/6/4 278/6/4 306/6/4
f 305/4/4 277/4/4 306/4/4
f 278/4/4 279/4/4 307/4/4
f 306/6/4 278/6/4 307/6/4
f 279/2/4 280/2/4 308/2/4
f 307/4/4 279/4/4 308/4/4
f 281/4/4 282/4/4 309/4/4
f 280/6/4 281/6/4 309/6/4
f 282/2/4 283/2/4 310/2/4
f 309/4/4 282/4/4 310/4/4
f 283/6/4 284/6/4 311/6/4
f 284/4/4 285/4/4 311/4/4
f 285/2/4 293/2/4 312/2/4
f 311/4/4 285/4/4 312/4/4
f 293/4/4 303/4/4 313/4/4
f 303/10/4 304/10/4 314/10/4
f 313/4/4 303/4/4 314/4/4
f 304/3/4 301/3/4 315/3/4
f 314/10/4 304/10/4 315/10/4
f 301/4/4 302/4/4 316/4/4
f 315/3/4 301/3/4 316/3/4
f 302/10/4 274/10/4 317/10/4
f 316/4/4 302/4/4 317/4/4
f 268/6/4 275/6/4 318/6/4
f 267/4/4 268/4/4 318/4/4
f 305/2/4 306/2/4 319/2/4
f 318/6/4 275/6/4 319/6/4
f 299/2/4 305/2/4 319/2/4
f 275/2/4 299/2/4 319/2/4
f 306/6/4 307/6/4 320/6/4
f 319/2/4 306/2/4 320/2/4
f 307/2/4 308/2/4 321/2/4
f 320/6/4 307/6/4 321/6/4
f 308/2/4 280/2/4 322/2/4
f 321/2/4 308/2/4 322/2/4
f 280/6/4 309/6/4 322/6/4
f 309/2/4 310/2/4 323/2/4
f 322/6/4 309/6/4 323/6/4
f 283/6/4 311/6/4 324/6/4
f 323/2/4 310/2/4 324/2/4
f 310/2/4 283/2/4 324/2/4
f 311/2/4 312/2/4 325/2/4
f 324/6/4 311/6/4 325/6/4
f 312/2/4 293/2/4 326/2/4
f 325/2/4 312/2/4 326/2/4
f 293/4/4 313/4/4 326/4/4
f 316/10/4 317/10/4 327/10/4
f 315/10/4 316/10/4 327/10/4
f 317/10/4 274/10/4 328/10/4
f 327/10/4 317/10/4 328/10/4
f 318/5/4 319/5/4 329/5/4
f 319/4/4 320/4/4 329/4/4
f 329/4/4 320/4/4 330/4/4
f 324/5/4 325/5/4 331/5/4
f 325/4/4 326/4/4 331/4/4
f 326/4/4 313/4/4 332/4/4
f 331/4/4 326/4/4 332/4/4
f 313/10/4 314/10/4 333/10/4
f 332/4/4 313/4/4 333/4/4
f 333/10/4 314/10/4 334/10/4
f 329/9/4 330/9/4 335/9/4
f 318/5/4 329/5/4 335/5/4
f 330/4/4 320/4/4 336/4/4
f 335/9/4 330/9/4 336/9/4
f 320/5/4 321/5/4 337/5/4
f 336/4/4 320/4/4 337/4/4
f 321/4/4 322/4/4 338/4/4
f 337/5/4 321/5/4 338/5/4
f 322/5/4 323/5/4 339/5/4
f 338/4/4 322/4/4 339/4/4
f 323/4/4 324/4/4 340/4/4
f 339/5/4 323/5/4 340/5/4
f 324/5/4 331/5/4 341/5/4
f 340/4/4 324/4/4 341/4/4
f 331/9/4 332/9/4 342/9/4
f 341/5/4 331/5/4 342/5/4
f 342/9/4 332/9/4 343/9/4
f 332/10/4 333/10/4 344/10/4
f 343/9/4 332/9/4 344/9/4
f 344/10/4 333/10/4 345/10/4
f 230/10/4 240/10/4 346/10/4
f 240/4/4 267/4/4 346/4/4
f 267/4/4 318/4/4 346/4/4
f 318/5/4 335/5/4 347/5/4
f 346/4/4 318/4/4 347/4/4
f 335/4/4 336/4/4 348/4/4
f 347/5/4 335/5/4 348/5/4
f 336/9/4 337/9/4 349/9/4
f 348/4/4 336/4/4 349/4/4
f 337/7/4 338/7/4 350/7/4
f 349/9/4 337/9/4 350/9/4
f 338/9/4 339/9/4 351/9/4
f 350/7/4 338/7/4 351/7/4
f 339/7/4 340/7/4 352/7/4
f 351/9/4 339/9/4 352/9/4
f 340/9/4 341/9/4 353/9/4
f 352/7/4 340/7/4 353/7/4
f 341/7/4 342/7/4 354/7/4
f 353/9/4 341/9/4 354/9/4
f 342/9/4 343/9/4 355/9/4
f 354/7/4 342/7/4 355/7/4
f 343/10/4 344/10/4 356/10/4
f 355/9/4 343/9/4 356/9/4
f 356/10/4 344/10/4 357/10/4
f 230/10/4 346/10/4 358/10/4
f 346/10/4 347/10/4 358/10/4
f 347/8/4 348/8/4 359/8/4
f 358/10/4 347/10/4 359/10/4
f 348/10/4 349/10/4 360/10/4
f 359/8/4 348/8/4 360/8/4
f 349/10/4 350/10/4 360/10/4
f 350/8/4 351/8/4 361/8/4
f 360/10/4 350/10/4 361/10/4
f 351/10/4 352/10/4 362/10/4
f 361/8/4 351/8/4 362/8/4
f 352/8/4 353/8/4 363/8/4
f 362/10/4 352/10/4 363/10/4
f 353/10/4 354/10/4 364/10/4
f 363/8/4 353/8/4 364/8/4
f 354/8/4 355/8/4 365/8/4
f 364/10/4 354/10/4 365/10/4
f 355/10/4 356/10/4 366/10/4
f 365/8/4 355/8/4 366/8/4
f 366/10/4 356/10/4 367/10/4
f 370/10/5 369/10/5 368/10/5
f 371/10/5 369/10/5 370/10/5
f 376/10/5 373/10/5 372/10/5
f 377/10/5 373/10/5 376/10/5
f 378/10/5 375/10/5 374/10/5
f 379/10/5 375/10/5 378/10/5
f 380/10/6 381/10/6 384/10/6
f 384/10/6 381/10/6 385/10/6
f 382/10/6 383/10/6 386/10/6
f 386/10/6 383/10/6 387/10/6
f 388/10/6 389/10/6 392/10/6
f 392/10/6 389/10/6 393/10/6
f 390/10/6 391/10/6 394/10/6
f 394/10/6 391/10/6 395/10/6
f 396/10/6 397/10/6 400/10/6
f 400/10/6 397/10/6 401/10/6
f 398/10/6 399/10/6 402/10/6
f 402/10/6 399/10/6 403/10/6
f 404/10/6 405/10/6 408/10/6
f 408/10/6 405/10/6 409/10/6
f 406/10/6 407/10/6 410/10/6
f 410/10/6 407/10/6 411/10/6
f 412/10/6 413/10/6 414/10/6
f 414/10/6 413/10/6 415/10/6
