# MagicaVoxel @ Ephtracy

# group
o 

# material
mtllib Glass.mtl
usemtl palette

# normals
vn -1 0 0
vn 1 0 0
vn 0 0 1
vn 0 0 -1
vn 0 -1 0
vn 0 1 0

# texcoords
vt 0.146484 0.5
vt 0.294922 0.5
vt 0.314453 0.5
vt 0.509766 0.5
vt 0.541016 0.5
vt 0.568359 0.5
vt 0.572266 0.5
vt 0.583984 0.5
vt 0.916016 0.5
vt 0.994141 0.5

# verts
v -0.7 0.1 0.5
v -0.7 0.1 0.3
v -0.7 2.2 0.5
v -0.7 2.2 0.3
v -0.6 0 0.5
v -0.6 0 0.3
v -0.6 0.1 0.5
v -0.6 0.1 0.3
v -0.6 2.2 0.5
v -0.6 2.2 0.3
v -0.6 2.3 0.5
v -0.6 2.3 0.3
v -0.5 2.3 0.5
v -0.5 2.3 0.3
v -0.5 3.1 0.5
v -0.5 3.1 0.3
v -0.1 2.3 0.5
v -0.1 2.3 0.3
v -0.1 3.1 0.5
v -0.1 3.1 0.3
v 5.96046e-08 0 0.5
v 5.96046e-08 0 0.3
v 5.96046e-08 0.1 0.5
v 5.96046e-08 0.1 0.3
v 5.96046e-08 2.2 0.5
v 5.96046e-08 2.2 0.3
v 5.96046e-08 2.3 0.5
v 5.96046e-08 2.3 0.3
v 0.1 0.1 0.5
v 0.1 0.1 0.3
v 0.1 2.2 0.5
v 0.1 2.2 0.3
v -0.7 0.1 0.5
v -0.7 2.2 0.5
v -0.6 0 0.5
v -0.6 0.1 0.5
v -0.6 0.3 0.5
v -0.6 0.7 0.5
v -0.6 0.8 0.5
v -0.6 1.6 0.5
v -0.6 1.7 0.5
v -0.6 2.1 0.5
v -0.6 2.2 0.5
v -0.6 2.3 0.5
v -0.5 0.1 0.5
v -0.5 0.3 0.5
v -0.5 0.4 0.5
v -0.5 0.7 0.5
v -0.5 1.7 0.5
v -0.5 1.9 0.5
v -0.5 2.1 0.5
v -0.5 2.2 0.5
v -0.5 2.3 0.5
v -0.5 3.1 0.5
v -0.4 0.4 0.5
v -0.4 0.7 0.5
v -0.4 0.8 0.5
v -0.4 1.6 0.5
v -0.4 1.9 0.5
v -0.4 2.2 0.5
v -0.4 2.3 0.5
v -0.4 2.6 0.5
v -0.4 2.7 0.5
v -0.4 3 0.5
v -0.3 0.3 0.5
v -0.3 0.4 0.5
v -0.3 0.6 0.5
v -0.3 0.7 0.5
v -0.3 0.8 0.5
v -0.3 1.6 0.5
v -0.3 1.7 0.5
v -0.3 2.1 0.5
v -0.3 2.3 0.5
v -0.3 2.6 0.5
v -0.2 0.1 0.5
v -0.2 0.4 0.5
v -0.2 0.6 0.5
v -0.2 0.7 0.5
v -0.2 1.7 0.5
v -0.2 2.1 0.5
v -0.2 2.3 0.5
v -0.2 2.6 0.5
v -0.2 2.7 0.5
v -0.2 3 0.5
v -0.1 0.1 0.5
v -0.1 0.6 0.5
v -0.1 0.9 0.5
v -0.1 1.1 0.5
v -0.1 1.5 0.5
v -0.1 2.1 0.5
v -0.1 2.2 0.5
v -0.1 2.3 0.5
v -0.1 3.1 0.5
v 5.96046e-08 0 0.5
v 5.96046e-08 0.1 0.5
v 5.96046e-08 0.9 0.5
v 5.96046e-08 1.1 0.5
v 5.96046e-08 1.5 0.5
v 5.96046e-08 2.2 0.5
v 5.96046e-08 2.3 0.5
v 0.1 0.1 0.5
v 0.1 2.2 0.5
v -0.7 0.1 0.3
v -0.7 2.2 0.3
v -0.6 0 0.3
v -0.6 0.1 0.3
v -0.6 0.3 0.3
v -0.6 0.7 0.3
v -0.6 0.8 0.3
v -0.6 1.6 0.3
v -0.6 1.7 0.3
v -0.6 2.1 0.3
v -0.6 2.2 0.3
v -0.6 2.3 0.3
v -0.5 0.1 0.3
v -0.5 0.3 0.3
v -0.5 0.4 0.3
v -0.5 0.7 0.3
v -0.5 1.7 0.3
v -0.5 1.9 0.3
v -0.5 2.1 0.3
v -0.5 2.2 0.3
v -0.5 2.3 0.3
v -0.5 3.1 0.3
v -0.4 0.4 0.3
v -0.4 0.7 0.3
v -0.4 0.8 0.3
v -0.4 1.6 0.3
v -0.4 1.9 0.3
v -0.4 2.2 0.3
v -0.4 2.3 0.3
v -0.4 2.6 0.3
v -0.4 2.7 0.3
v -0.4 3 0.3
v -0.3 0.1 0.3
v -0.3 0.2 0.3
v -0.3 0.4 0.3
v -0.3 0.6 0.3
v -0.3 0.7 0.3
v -0.3 0.8 0.3
v -0.3 1.6 0.3
v -0.3 1.7 0.3
v -0.3 2.1 0.3
v -0.3 2.3 0.3
v -0.3 2.6 0.3
v -0.2 0.2 0.3
v -0.2 0.6 0.3
v -0.2 0.7 0.3
v -0.2 1.7 0.3
v -0.2 2.1 0.3
v -0.2 2.3 0.3
v -0.2 2.6 0.3
v -0.2 2.7 0.3
v -0.2 3 0.3
v -0.1 0.9 0.3
v -0.1 1.1 0.3
v -0.1 1.5 0.3
v -0.1 2.1 0.3
v -0.1 2.2 0.3
v -0.1 2.3 0.3
v -0.1 3.1 0.3
v 5.96046e-08 0 0.3
v 5.96046e-08 0.1 0.3
v 5.96046e-08 0.9 0.3
v 5.96046e-08 1.1 0.3
v 5.96046e-08 1.5 0.3
v 5.96046e-08 2.2 0.3
v 5.96046e-08 2.3 0.3
v 0.1 0.1 0.3
v 0.1 2.2 0.3
v -0.6 0 0.5
v 5.96046e-08 0 0.5
v -0.6 0 0.3
v 5.96046e-08 0 0.3
v -0.7 0.1 0.5
v -0.6 0.1 0.5
v 5.96046e-08 0.1 0.5
v 0.1 0.1 0.5
v -0.7 0.1 0.3
v -0.6 0.1 0.3
v 5.96046e-08 0.1 0.3
v 0.1 0.1 0.3
v -0.7 2.2 0.5
v -0.6 2.2 0.5
v 5.96046e-08 2.2 0.5
v 0.1 2.2 0.5
v -0.7 2.2 0.3
v -0.6 2.2 0.3
v 5.96046e-08 2.2 0.3
v 0.1 2.2 0.3
v -0.6 2.3 0.5
v -0.5 2.3 0.5
v -0.1 2.3 0.5
v 5.96046e-08 2.3 0.5
v -0.6 2.3 0.3
v -0.5 2.3 0.3
v -0.1 2.3 0.3
v 5.96046e-08 2.3 0.3
v -0.5 3.1 0.5
v -0.1 3.1 0.5
v -0.5 3.1 0.3
v -0.1 3.1 0.3

# faces
f 3/10/1 2/10/1 1/10/1
f 4/10/1 2/10/1 3/10/1
f 7/10/1 6/10/1 5/10/1
f 8/10/1 6/10/1 7/10/1
f 11/10/1 10/10/1 9/10/1
f 12/10/1 10/10/1 11/10/1
f 15/10/1 14/10/1 13/10/1
f 16/10/1 14/10/1 15/10/1
f 17/10/2 18/10/2 19/10/2
f 19/10/2 18/10/2 20/10/2
f 21/10/2 22/10/2 23/10/2
f 23/10/2 22/10/2 24/10/2
f 25/10/2 26/10/2 27/10/2
f 27/10/2 26/10/2 28/10/2
f 29/10/2 30/10/2 31/10/2
f 31/10/2 30/10/2 32/10/2
f 36/10/3 34/10/3 33/10/3
f 37/10/3 34/10/3 36/10/3
f 38/10/3 34/10/3 37/10/3
f 39/10/3 34/10/3 38/10/3
f 40/10/3 34/10/3 39/10/3
f 41/10/3 34/10/3 40/10/3
f 42/10/3 34/10/3 41/10/3
f 43/10/3 34/10/3 42/10/3
f 45/10/3 36/10/3 35/10/3
f 45/4/3 37/4/3 36/4/3
f 46/5/3 38/5/3 37/5/3
f 46/4/3 37/4/3 45/4/3
f 47/5/3 38/5/3 46/5/3
f 48/10/3 39/10/3 38/10/3
f 48/5/3 38/5/3 47/5/3
f 49/10/3 41/10/3 40/10/3
f 49/5/3 42/5/3 41/5/3
f 50/5/3 42/5/3 49/5/3
f 51/8/3 43/8/3 42/8/3
f 51/5/3 42/5/3 50/5/3
f 52/10/3 44/10/3 43/10/3
f 52/8/3 43/8/3 51/8/3
f 53/10/3 44/10/3 52/10/3
f 55/8/3 47/8/3 46/8/3
f 55/4/3 48/4/3 47/4/3
f 56/10/3 39/10/3 48/10/3
f 56/4/3 48/4/3 55/4/3
f 57/3/3 40/3/3 39/3/3
f 57/10/3 39/10/3 56/10/3
f 58/10/3 49/10/3 40/10/3
f 58/3/3 40/3/3 57/3/3
f 59/9/3 51/9/3 50/9/3
f 59/6/3 50/6/3 49/6/3
f 59/9/3 52/9/3 51/9/3
f 60/10/3 54/10/3 53/10/3
f 60/9/3 52/9/3 59/9/3
f 60/10/3 53/10/3 52/10/3
f 61/10/3 54/10/3 60/10/3
f 62/10/3 54/10/3 61/10/3
f 63/10/3 54/10/3 62/10/3
f 64/10/3 54/10/3 63/10/3
f 65/8/3 56/8/3 55/8/3
f 65/8/3 55/8/3 46/8/3
f 65/7/3 46/7/3 45/7/3
f 66/8/3 56/8/3 65/8/3
f 67/8/3 56/8/3 66/8/3
f 68/10/3 57/10/3 56/10/3
f 68/8/3 56/8/3 67/8/3
f 69/2/3 58/2/3 57/2/3
f 69/10/3 57/10/3 68/10/3
f 70/10/3 49/10/3 58/10/3
f 70/2/3 58/2/3 69/2/3
f 71/6/3 59/6/3 49/6/3
f 71/10/3 49/10/3 70/10/3
f 71/6/3 60/6/3 59/6/3
f 72/6/3 60/6/3 71/6/3
f 73/10/3 61/10/3 60/10/3
f 73/3/3 62/3/3 61/3/3
f 74/10/3 63/10/3 62/10/3
f 74/3/3 62/3/3 73/3/3
f 75/10/3 45/10/3 35/10/3
f 75/7/3 66/7/3 65/7/3
f 75/7/3 65/7/3 45/7/3
f 76/6/3 67/6/3 66/6/3
f 76/7/3 66/7/3 75/7/3
f 77/7/3 68/7/3 67/7/3
f 77/6/3 67/6/3 76/6/3
f 78/10/3 69/10/3 68/10/3
f 78/7/3 68/7/3 77/7/3
f 78/10/3 70/10/3 69/10/3
f 78/10/3 71/10/3 70/10/3
f 79/7/3 72/7/3 71/7/3
f 79/10/3 71/10/3 78/10/3
f 80/6/3 60/6/3 72/6/3
f 80/7/3 72/7/3 79/7/3
f 81/10/3 73/10/3 60/10/3
f 81/2/3 74/2/3 73/2/3
f 82/10/3 63/10/3 74/10/3
f 82/2/3 74/2/3 81/2/3
f 83/1/3 64/1/3 63/1/3
f 83/10/3 63/10/3 82/10/3
f 84/10/3 54/10/3 64/10/3
f 84/1/3 64/1/3 83/1/3
f 85/6/3 77/6/3 76/6/3
f 85/6/3 76/6/3 75/6/3
f 85/10/3 75/10/3 35/10/3
f 86/8/3 78/8/3 77/8/3
f 86/6/3 77/6/3 85/6/3
f 86/8/3 79/8/3 78/8/3
f 86/8/3 80/8/3 79/8/3
f 87/8/3 80/8/3 86/8/3
f 88/8/3 80/8/3 87/8/3
f 89/8/3 80/8/3 88/8/3
f 90/6/3 60/6/3 80/6/3
f 90/8/3 80/8/3 89/8/3
f 91/10/3 84/10/3 83/10/3
f 91/6/3 60/6/3 90/6/3
f 91/10/3 81/10/3 60/10/3
f 91/10/3 83/10/3 82/10/3
f 91/10/3 82/10/3 81/10/3
f 92/10/3 84/10/3 91/10/3
f 93/10/3 54/10/3 84/10/3
f 93/10/3 84/10/3 92/10/3
f 94/10/3 85/10/3 35/10/3
f 95/8/3 87/8/3 86/8/3
f 95/10/3 85/10/3 94/10/3
f 95/8/3 86/8/3 85/8/3
f 96/7/3 88/7/3 87/7/3
f 96/8/3 87/8/3 95/8/3
f 97/6/3 89/6/3 88/6/3
f 97/7/3 88/7/3 96/7/3
f 98/8/3 90/8/3 89/8/3
f 98/6/3 89/6/3 97/6/3
f 98/8/3 91/8/3 90/8/3
f 99/10/3 92/10/3 91/10/3
f 99/8/3 91/8/3 98/8/3
f 100/10/3 92/10/3 99/10/3
f 101/10/3 98/10/3 97/10/3
f 101/10/3 97/10/3 96/10/3
f 101/10/3 99/10/3 98/10/3
f 101/10/3 96/10/3 95/10/3
f 102/10/3 99/10/3 101/10/3
f 103/10/4 104/10/4 106/10/4
f 106/10/4 104/10/4 107/10/4
f 107/10/4 104/10/4 108/10/4
f 108/10/4 104/10/4 109/10/4
f 109/10/4 104/10/4 110/10/4
f 110/10/4 104/10/4 111/10/4
f 111/10/4 104/10/4 112/10/4
f 112/10/4 104/10/4 113/10/4
f 105/10/4 106/10/4 115/10/4
f 106/4/4 107/4/4 115/4/4
f 107/5/4 108/5/4 116/5/4
f 115/4/4 107/4/4 116/4/4
f 116/5/4 108/5/4 117/5/4
f 108/10/4 109/10/4 118/10/4
f 117/5/4 108/5/4 118/5/4
f 110/10/4 111/10/4 119/10/4
f 111/5/4 112/5/4 119/5/4
f 119/5/4 112/5/4 120/5/4
f 112/8/4 113/8/4 121/8/4
f 120/5/4 112/5/4 121/5/4
f 113/10/4 114/10/4 122/10/4
f 121/8/4 113/8/4 122/8/4
f 122/10/4 114/10/4 123/10/4
f 116/6/4 117/6/4 125/6/4
f 117/4/4 118/4/4 125/4/4
f 115/6/4 116/6/4 125/6/4
f 118/10/4 109/10/4 126/10/4
f 125/4/4 118/4/4 126/4/4
f 109/3/4 110/3/4 127/3/4
f 126/10/4 109/10/4 127/10/4
f 110/10/4 119/10/4 128/10/4
f 127/3/4 110/3/4 128/3/4
f 120/9/4 121/9/4 129/9/4
f 119/6/4 120/6/4 129/6/4
f 121/9/4 122/9/4 129/9/4
f 123/10/4 124/10/4 130/10/4
f 129/9/4 122/9/4 130/9/4
f 122/10/4 123/10/4 130/10/4
f 130/10/4 124/10/4 131/10/4
f 131/10/4 124/10/4 132/10/4
f 132/10/4 124/10/4 133/10/4
f 133/10/4 124/10/4 134/10/4
f 105/10/4 115/10/4 135/10/4
f 115/6/4 125/6/4 135/6/4
f 135/6/4 125/6/4 136/6/4
f 125/8/4 126/8/4 137/8/4
f 136/6/4 125/6/4 137/6/4
f 137/8/4 126/8/4 138/8/4
f 126/10/4 127/10/4 139/10/4
f 138/8/4 126/8/4 139/8/4
f 127/2/4 128/2/4 140/2/4
f 139/10/4 127/10/4 140/10/4
f 128/10/4 119/10/4 141/10/4
f 140/2/4 128/2/4 141/2/4
f 119/6/4 129/6/4 142/6/4
f 141/10/4 119/10/4 142/10/4
f 129/6/4 130/6/4 142/6/4
f 142/6/4 130/6/4 143/6/4
f 130/10/4 131/10/4 144/10/4
f 131/3/4 132/3/4 144/3/4
f 132/10/4 133/10/4 145/10/4
f 144/3/4 132/3/4 145/3/4
f 135/8/4 136/8/4 146/8/4
f 137/6/4 138/6/4 146/6/4
f 136/6/4 137/6/4 146/6/4
f 138/7/4 139/7/4 147/7/4
f 146/6/4 138/6/4 147/6/4
f 139/10/4 140/10/4 148/10/4
f 147/7/4 139/7/4 148/7/4
f 140/10/4 141/10/4 148/10/4
f 141/10/4 142/10/4 148/10/4
f 142/7/4 143/7/4 149/7/4
f 148/10/4 142/10/4 149/10/4
f 143/6/4 130/6/4 150/6/4
f 149/7/4 143/7/4 150/7/4
f 144/2/4 145/2/4 151/2/4
f 130/10/4 144/10/4 151/10/4
f 145/10/4 133/10/4 152/10/4
f 151/2/4 145/2/4 152/2/4
f 133/1/4 134/1/4 153/1/4
f 152/10/4 133/10/4 153/10/4
f 134/10/4 124/10/4 154/10/4
f 153/1/4 134/1/4 154/1/4
f 146/8/4 147/8/4 155/8/4
f 149/8/4 150/8/4 155/8/4
f 148/8/4 149/8/4 155/8/4
f 147/8/4 148/8/4 155/8/4
f 155/8/4 150/8/4 156/8/4
f 156/8/4 150/8/4 157/8/4
f 150/6/4 130/6/4 158/6/4
f 157/8/4 150/8/4 158/8/4
f 152/10/4 153/10/4 159/10/4
f 158/6/4 130/6/4 159/6/4
f 130/10/4 151/10/4 159/10/4
f 151/10/4 152/10/4 159/10/4
f 153/10/4 154/10/4 159/10/4
f 159/10/4 154/10/4 160/10/4
f 154/10/4 124/10/4 161/10/4
f 160/10/4 154/10/4 161/10/4
f 105/10/4 135/10/4 162/10/4
f 135/8/4 146/8/4 163/8/4
f 162/10/4 135/10/4 163/10/4
f 146/8/4 155/8/4 163/8/4
f 155/7/4 156/7/4 164/7/4
f 163/8/4 155/8/4 164/8/4
f 156/6/4 157/6/4 165/6/4
f 164/7/4 156/7/4 165/7/4
f 157/8/4 158/8/4 166/8/4
f 165/6/4 157/6/4 166/6/4
f 158/8/4 159/8/4 166/8/4
f 159/10/4 160/10/4 167/10/4
f 166/8/4 159/8/4 167/8/4
f 167/10/4 160/10/4 168/10/4
f 165/10/4 166/10/4 169/10/4
f 164/10/4 165/10/4 169/10/4
f 166/10/4 167/10/4 169/10/4
f 163/10/4 164/10/4 169/10/4
f 169/10/4 167/10/4 170/10/4
f 173/10/5 172/10/5 171/10/5
f 174/10/5 172/10/5 173/10/5
f 179/10/5 176/10/5 175/10/5
f 180/10/5 176/10/5 179/10/5
f 181/10/5 178/10/5 177/10/5
f 182/10/5 178/10/5 181/10/5
f 183/10/6 184/10/6 187/10/6
f 187/10/6 184/10/6 188/10/6
f 185/10/6 186/10/6 189/10/6
f 189/10/6 186/10/6 190/10/6
f 191/10/6 192/10/6 195/10/6
f 195/10/6 192/10/6 196/10/6
f 193/10/6 194/10/6 197/10/6
f 197/10/6 194/10/6 198/10/6
f 199/10/6 200/10/6 201/10/6
f 201/10/6 200/10/6 202/10/6
